name 900006_16.mot
datacolumns 153
datarows 4
range 0.98333329 1.00833333
endheader

                time	           pelvis_tx	           pelvis_ty	           pelvis_tz	         pelvis_tilt	         pelvis_list	     pelvis_rotation	       hip_flexion_r	     hip_adduction_r	      hip_rotation_r	        knee_angle_r	       ankle_angle_r	    subtalar_angle_r	         mtp_angle_r	       hip_flexion_l	     hip_adduction_l	      hip_rotation_l	        knee_angle_l	       ankle_angle_l	    subtalar_angle_l	         mtp_angle_l	    lumbar_extension	      lumbar_bending	     lumbar_rotation	     ground_force_vx	     ground_force_vy	     ground_force_vz	     ground_force_px	     ground_force_py	     ground_force_pz	     ground_force_vx	     ground_force_vy	     ground_force_vz	     ground_force_px	     ground_force_py	     ground_force_pz	     ground_torque_x	     ground_torque_y	     ground_torque_z	     ground_torque_x	     ground_torque_y	     ground_torque_z	    ground_marker_px	    ground_marker_py	    ground_marker_pz	    ground_marker_px	    ground_marker_py	    ground_marker_pz	    ground_marker_px	    ground_marker_py	    ground_marker_pz	    ground_marker_px	    ground_marker_py	    ground_marker_pz	    ground_marker_px	    ground_marker_py	    ground_marker_pz	    ground_marker_px	    ground_marker_py	    ground_marker_pz	    ground_marker_px	    ground_marker_py	    ground_marker_pz	    ground_marker_px	    ground_marker_py	    ground_marker_pz	    ground_marker_px	    ground_marker_py	    ground_marker_pz	    ground_marker_px	    ground_marker_py	    ground_marker_pz	    ground_marker_px	    ground_marker_py	    ground_marker_pz	    ground_marker_px	    ground_marker_py	    ground_marker_pz	    ground_marker_px	    ground_marker_py	    ground_marker_pz	    ground_marker_px	    ground_marker_py	    ground_marker_pz	    ground_marker_px	    ground_marker_py	    ground_marker_pz	    ground_marker_px	    ground_marker_py	    ground_marker_pz	    ground_marker_px	    ground_marker_py	    ground_marker_pz	    ground_marker_px	    ground_marker_py	    ground_marker_pz	    ground_marker_px	    ground_marker_py	    ground_marker_pz	    ground_marker_px	    ground_marker_py	    ground_marker_pz	    ground_marker_px	    ground_marker_py	    ground_marker_pz	    ground_marker_px	    ground_marker_py	    ground_marker_pz	    ground_marker_px	    ground_marker_py	    ground_marker_pz	    ground_marker_px	    ground_marker_py	    ground_marker_pz	    ground_marker_px	    ground_marker_py	    ground_marker_pz	    ground_marker_px	    ground_marker_py	    ground_marker_pz	    ground_marker_px	    ground_marker_py	    ground_marker_pz	    ground_marker_px	    ground_marker_py	    ground_marker_pz	    ground_marker_px	    ground_marker_py	    ground_marker_pz	    ground_marker_px	    ground_marker_py	    ground_marker_pz	    ground_marker_px	    ground_marker_py	    ground_marker_pz	    ground_marker_px	    ground_marker_py	    ground_marker_pz	    ground_marker_px	    ground_marker_py	    ground_marker_pz	    ground_marker_px	    ground_marker_py	    ground_marker_pz	    ground_marker_px	    ground_marker_py	    ground_marker_pz	    ground_marker_px	    ground_marker_py	    ground_marker_pz	    ground_marker_px	    ground_marker_py	    ground_marker_pz	
          0.98333329	          2.09192276	          0.84795755	         -0.24851957	          2.92726326	          1.95884728	          3.55041265	          0.21648979	          0.15318649	          0.21125856	        -11.34072685	          6.54417181	          0.00000000	          0.00000000	         14.44356346	         -0.11047497	         -2.24682641	        -47.03950119	          6.34538841	          0.00000000	          0.00000000	         -5.05610752	         -0.42155781	         -1.51029098	        -14.77353968	        396.60899592	         -9.45059686	          2.05486890	          0.00000000	         -0.22360576	          0.00000000	          0.00000000	          0.00000000	          1.64771509	          0.00000000	         -0.27411636	          0.00000000	          0.55044135	          0.00000000	          0.00000000	          0.00000000	          0.00000000	          2.05674767	          0.77625728	         -0.25794241	          2.05204153	          0.77062780	         -0.20098548	          2.06145382	          0.78188682	         -0.31489936	          1.99795485	          0.42951766	         -0.19758545	          2.10941029	          0.43557262	         -0.33764693	          1.98962700	          0.06535752	         -0.21534981	          1.95313978	          0.12275519	         -0.31266606	          2.09192276	          0.84795755	         -0.24851957	          2.09811735	          0.84313130	         -0.13773192	          2.08572841	          0.85278380	         -0.35930723	          1.91806996	          0.87605590	         -0.20665011	          1.91293871	          0.87522161	         -0.26207286	          2.04469490	          0.41809544	         -0.13867183	          2.11706352	          0.42788592	         -0.39523470	          2.00446677	          0.42910030	         -0.25569928	          2.14254189	          0.42866290	         -0.27393302	          1.99098110	          0.06301969	         -0.17794725	          1.93841755	          0.12804848	         -0.34564313	          1.98433423	          0.06294828	         -0.24848875	          1.95846057	          0.12380969	         -0.27947938	          2.08044958	          1.20043707	         -0.25259143	          2.08778739	          1.09871030	         -0.25892907	          1.97349346	          1.27165651	         -0.24140669	          2.07298207	          0.04627240	         -0.21649694	          2.02183795	          0.07059600	         -0.33535662	          2.16087008	          0.55659562	         -0.17577857	          2.19278479	          0.60421908	         -0.40843555	          2.11273837	          0.59526050	         -0.13328415	          2.16585159	          0.63979709	         -0.34047723	          2.09575582	          0.53826118	         -0.13882422	          2.17395759	          0.58185512	         -0.33424762	          2.12406611	          0.17270066	         -0.20634678	          1.96542811	          0.22566462	         -0.43842000	          2.04424739	          0.16329414	         -0.20888543	          1.98101091	          0.21270967	         -0.36209893	          2.08496308	          1.19868028	         -0.19620056	          2.08179140	          1.20246053	         -0.30298436	
          0.99166667	          2.09781861	          0.84778678	         -0.24843578	          2.87483120	          2.08327913	          3.45624256	         -0.24603271	          0.05735331	          0.19104525	        -11.26085949	          6.93771458	          0.00000000	          0.00000000	         15.06665421	          0.05752318	         -2.26928949	        -45.47296906	          6.88722897	          0.00000000	          0.00000000	         -5.11151075	         -0.87253094	         -1.31328535	        -14.30272095	        397.95418808	         -9.33218276	          2.05869141	          0.00000000	         -0.22401204	          0.00000000	          0.00000000	          0.00000000	          1.64859351	          0.00000000	         -0.27423508	          0.00000000	          0.58558740	          0.00000000	          0.00000000	          0.00000000	          0.00000000	          2.06255722	          0.77612484	         -0.25805661	          2.05772257	          0.77039540	         -0.20112042	          2.06739187	          0.78185433	         -0.31499282	          2.00125289	          0.42957121	         -0.19770327	          2.11883235	          0.43735206	         -0.33729529	          1.98959267	          0.06542061	         -0.21542725	          1.97382045	          0.11724232	         -0.31420010	          2.09781861	          0.84778678	         -0.24843578	          2.10379434	          0.84274244	         -0.13757274	          2.09184289	          0.85283107	         -0.35929883	          1.92379689	          0.87603360	         -0.20719966	          1.91923797	          0.87518013	         -0.26262930	          2.04718256	          0.41789284	         -0.13875890	          2.12675738	          0.42865813	         -0.39501050	          2.00802326	          0.42911020	         -0.25604212	          2.15174603	          0.42849171	         -0.27653939	          1.99095798	          0.06307113	         -0.17802583	          1.95888126	          0.12220093	         -0.34713155	          1.98437178	          0.06313900	         -0.24858852	          1.97922623	          0.11811768	         -0.28104717	          2.08671641	          1.20031953	         -0.25302967	          2.09390450	          1.09854722	         -0.25877774	          1.98004961	          1.27163529	         -0.24172008	          2.07297397	          0.04627758	         -0.21652927	          2.04470015	          0.06849732	         -0.33782348	          2.16497755	          0.55558574	         -0.17561075	          2.20042920	          0.60546225	         -0.40782496	          2.11694789	          0.59435433	         -0.13331215	          2.17269063	          0.64098966	         -0.33936593	          2.09973025	          0.53786945	         -0.13886566	          2.18146443	          0.58308482	         -0.33412510	          2.12498903	          0.17173271	         -0.20652051	          1.98221290	          0.22136839	         -0.43935749	          2.04537892	          0.16288882	         -0.20896770	          1.99846947	          0.20833956	         -0.36302671	          2.09132290	          1.19889307	         -0.19672814	          2.08797622	          1.20204043	         -0.30334508	
          1.00000000	          2.10372639	          0.84749842	         -0.24831781	          2.80570889	          2.20530748	          3.33336163	         -0.66612720	         -0.02156642	          0.16496980	        -11.21388721	          7.37846041	          0.00000000	          0.00000000	         15.65993309	          0.20902656	         -2.34445524	        -43.77864456	          7.28012133	          0.00000000	          0.00000000	         -5.15605021	         -1.26850331	         -0.88886231	        -13.84780455	        400.08460889	         -9.18733819	          2.06232739	          0.00000000	         -0.22438612	          0.00000000	          0.00000000	          0.00000000	          1.64954175	          0.00000000	         -0.27435770	          0.00000000	          0.62225781	          0.00000000	          0.00000000	          0.00000000	          0.00000000	          2.06834197	          0.77585626	         -0.25812414	          2.06333971	          0.77003580	         -0.20121166	          2.07334423	          0.78167671	         -0.31503662	          2.00443745	          0.42905387	         -0.19795462	          2.12718868	          0.43774134	         -0.33688453	          1.98962021	          0.06549667	         -0.21548451	          1.99490738	          0.11181472	         -0.31579182	          2.10372639	          0.84749842	         -0.24831781	          2.10942841	          0.84224659	         -0.13735010	          2.09802437	          0.85275024	         -0.35928550	          1.92951822	          0.87594235	         -0.20778720	          1.92543399	          0.87511057	         -0.26320097	          2.04973888	          0.41767076	         -0.13890953	          2.13614893	          0.42930195	         -0.39475235	          2.01177025	          0.42801872	         -0.25601912	          2.15936351	          0.42898542	         -0.27607670	          1.99097860	          0.06314683	         -0.17808287	          1.97971117	          0.11643592	         -0.34865466	          1.98447454	          0.06350433	         -0.24868119	          2.00107956	          0.11244552	         -0.28288984	          2.09293699	          1.20008910	         -0.25388041	          2.09994483	          1.09827876	         -0.25916246	          1.98647606	          1.27159417	         -0.24243002	          2.07302308	          0.04636091	         -0.21656631	          2.06771302	          0.06651860	         -0.34034589	          2.16915178	          0.55460167	         -0.17539750	          2.20784378	          0.60647827	         -0.40721259	          2.12077045	          0.59355277	         -0.13358332	          2.17942095	          0.64178711	         -0.33866045	          2.10323524	          0.53693354	         -0.13891912	          2.18854547	          0.58364123	         -0.33337700	          2.12596321	          0.17069384	         -0.20664616	          1.99901819	          0.21705732	         -0.44026652	          2.04683924	          0.16250081	         -0.20894733	          2.01660872	          0.20382422	         -0.36439422	          2.09783697	          1.19893169	         -0.19751900	          2.09393525	          1.20156157	         -0.30428773	
          1.00833333	          2.10964990	          0.84711945	         -0.24817660	          2.72999763	          2.32605648	          3.18628144	         -1.05750656	         -0.08966834	          0.12300816	        -11.19777203	          7.86387682	          0.00000000	          0.00000000	         16.20512199	          0.34430262	         -2.45977688	        -41.95100403	          7.51704407	          0.00000000	          0.00000000	         -5.31575727	         -1.42099941	         -0.59128344	        -13.41771070	        402.82971927	         -9.01347408	          2.06583203	          0.00000000	         -0.22473248	          0.00000000	          0.00000000	          0.00000000	          1.65055005	          0.00000000	         -0.27448853	          0.00000000	          0.66170502	          0.00000000	          0.00000000	          0.00000000	          0.00000000	          2.07414627	          0.77548254	         -0.25816053	          2.06895542	          0.76958251	         -0.20127314	          2.07933688	          0.78138250	         -0.31504795	          2.00793695	          0.42896491	         -0.19830434	          2.13454914	          0.43744698	         -0.33647430	          1.98970592	          0.06558888	         -0.21552429	          2.01636553	          0.10656527	         -0.31745723	          2.10964990	          0.84711945	         -0.24817660	          2.11503053	          0.84166992	         -0.13710608	          2.10426927	          0.85256904	         -0.35924712	          1.93523598	          0.87577993	         -0.20837602	          1.93148315	          0.87501013	         -0.26376048	          2.05236292	          0.41741854	         -0.13910647	          2.14520526	          0.42981893	         -0.39447969	          2.01610041	          0.42727846	         -0.25647223	          2.16542077	          0.42978325	         -0.27408677	          1.99103618	          0.06324867	         -0.17812103	          2.00086641	          0.11084277	         -0.35022506	          1.98466814	          0.06367013	         -0.24875140	          2.02251887	          0.10716741	         -0.28453809	          2.09912515	          1.19972312	         -0.25464681	          2.10572004	          1.09788132	         -0.25984985	          1.99315691	          1.27153683	         -0.24294963	          2.07313681	          0.04651682	         -0.21661513	          2.09085488	          0.06471443	         -0.34287545	          2.17336345	          0.55362421	         -0.17512314	          2.21502733	          0.60725808	         -0.40659738	          2.12492156	          0.59321100	         -0.13411523	          2.18593407	          0.64215946	         -0.33815256	          2.10699701	          0.53630888	         -0.13925859	          2.19506526	          0.58394670	         -0.33230972	          2.12699533	          0.16960011	         -0.20670880	          2.01580477	          0.21279806	         -0.44113788	          2.04802251	          0.16215035	         -0.20906858	          2.03421092	          0.19984527	         -0.36525616	          2.10417414	          1.19859326	         -0.19803454	          2.09999061	          1.20115054	         -0.30532029	
